<svg width="483" height="483" viewBox="0 0 483 483" fill="none" xmlns="http://www.w3.org/2000/svg">
<path fill-rule="evenodd" clip-rule="evenodd" d="M246 482.959C377.301 480.56 483 373.374 483 241.5C483 109.626 377.3 2.43994 245.999 0.0410156C244.503 0.0136719 243.003 0 241.5 0C108.123 0 0 108.123 0 241.5C0 374.877 108.123 483 241.5 483C243.003 483 244.503 482.986 246 482.959ZM5.15527 241.475C87.917 241.777 245.411 289.743 245.998 481.921C246.085 401.144 293.158 241.788 481.49 241.5C402.661 241.456 246.021 193.184 245.999 0.0410156C244.162 79.9697 193.314 239.165 5.15527 241.475ZM1 241.5C2.3623 241.478 3.74805 241.469 5.15527 241.475C3.77734 241.492 2.39258 241.5 1 241.5Z" fill="url(#paint0_linear_2375_31)"/>
<defs>
<linearGradient id="paint0_linear_2375_31" x1="483" y1="241.5" x2="0" y2="241.5" gradientUnits="userSpaceOnUse">
<stop stop-color="#D1E9FF"/>
<stop offset="0.3" stop-color="#57BCFF"/>
<stop offset="1" stop-color="#00C3E5"/>
</linearGradient>
</defs>
</svg>
